# xmcd CD database file
#
# Track frame offsets:
#	150
#	9715
#	26616
#	37578
#	52347
#	69830
#	82641
#	94814
#	107549
#	116642
#	129069
#	151333
#	167214
#	178790
#	194524
#	207308
#	224569
#	236563
#	247384
#	262516
#	278898
#	296936
#
# Disc length: 4241 seconds
#
# Revision: 0
# Processed by: cddbd v1.5.1PL0 Copyright (c) Steve Scherf et al.
# Submitted via: cdripper 1.0.10
#
DISCID=38108f16
DTITLE=Nolan Bruce Allen - Salutes the Bob Wills Era
DYEAR=2003
DGENRE=Country
TTITLE0=There Ain't a Cow in Texas
TTITLE1=Spanish Two Step
TTITLE2=I Needed You
TTITLE3=The Kind of Love I Can't Forget
TTITLE4=Blues for Dixie
TTITLE5=My Mary
TTITLE6=Bubbles in My Beer
TTITLE7=Heart to Heart Talk
TTITLE8=Texas Playboy Chimes [instrumental]
TTITLE9=Roly Poly
TTITLE10=Faded Love
TTITLE11=Shame on You
TTITLE12=Yearning
TTITLE13=Right or Wrong
TTITLE14=Rosetta
TTITLE15=Little Liza Jane
TTITLE16=Sugar Moon
TTITLE17=Home in San Antone
TTITLE18=My Confession
TTITLE19=Silver Bells [instrumental]
TTITLE20=South of the Border
TTITLE21=Goodnight Little Sweetheart
EXTD=YEAR: 2003
EXTT0=
EXTT1=
EXTT2=
EXTT3=
EXTT4=
EXTT5=
EXTT6=
EXTT7=
EXTT8=
EXTT9=
EXTT10=
EXTT11=
EXTT12=
EXTT13=
EXTT14=
EXTT15=
EXTT16=
EXTT17=
EXTT18=
EXTT19=
EXTT20=
EXTT21=
PLAYORDER=
